<svg xmlns="http://www.w3.org/2000/svg" version="1.1" xmlns:xlink="http://www.w3.org/1999/xlink" xmlns:svgjs="http://svgjs.com/svgjs" width="1440" height="560" preserveAspectRatio="none" viewBox="0 0 1440 560"><g mask="url(&quot;#SvgjsMask3762&quot;)" fill="none"><rect width="1440" height="560" x="0" y="0" fill="#0e2a47"></rect><path d="M829.53 383.64 L1000.71 292.7L784.3504772321646 207.40047723216463z" stroke="rgba(69, 211, 211, 1)" stroke-width="2.02" stroke-dasharray="4, 4"></path><rect width="60" height="60" clip-path="url(&quot;#SvgjsClipPath3763&quot;)" x="1389.75" y="421.23" fill="url(#SvgjsPattern3764)" transform="rotate(230.35, 1419.75, 451.23)"></rect><circle r="89.11342572435473" cx="246.49" cy="289.98" fill="rgba(234, 83, 83, 1)"></circle><circle r="83.12337946197661" cx="1365.72" cy="55.1" fill="rgba(69, 211, 211, 1)"></circle><path d="M1288.91 468.64a5.6 5.6 0 1 0-5.01 10.02 5.6 5.6 0 1 0 5.01-10.02zM1281.75 482.95a5.6 5.6 0 1 0-5.01 10.01 5.6 5.6 0 1 0 5.01-10.01zM1274.59 497.26a5.6 5.6 0 1 0-5.02 10.01 5.6 5.6 0 1 0 5.02-10.01zM1267.43 511.56a5.6 5.6 0 1 0-5.02 10.02 5.6 5.6 0 1 0 5.02-10.02z" fill="rgba(252, 175, 74, 1)"></path><circle r="46.666666666666664" cx="383.46" cy="6.93" stroke="rgba(84, 158, 242, 1)" stroke-width="2.45" stroke-dasharray="3, 2"></circle><path d="M326.36 132.85999999999999 L282.39 212.84L253.6453983473758 122.12039834737578z" stroke="rgba(252, 175, 74, 1)" stroke-width="1"></path><path d="M797.38 115.14L784.66 116.63 780.41 104.55 767.69 106.05 763.44 93.96 750.73 95.46 746.48 83.38" stroke="rgba(234, 83, 83, 1)" stroke-width="1" stroke-dasharray="3, 3"></path><path d="M1457.26 559.83 L1309.46 481.52L1273.0313285293685 631.0036714706317z" fill="rgba(84, 158, 242, 1)"></path><circle r="46.666666666666664" cx="1166.48" cy="313.05" stroke="rgba(234, 83, 83, 1)" stroke-width="1.87" stroke-dasharray="4, 4"></circle><rect width="230.56" height="230.56" clip-path="url(&quot;#SvgjsClipPath3765&quot;)" x="346.8" y="400.83" fill="url(#SvgjsPattern3766)" transform="rotate(168.11, 462.08, 516.11)"></rect><circle r="46.666666666666664" cx="1090.52" cy="478.7" fill="rgba(252, 175, 74, 1)"></circle></g><defs><mask id="SvgjsMask3762"><rect width="1440" height="560" fill="#ffffff"></rect></mask><pattern x="0" y="0" width="60" height="6" patternUnits="userSpaceOnUse" id="SvgjsPattern3764"><rect width="60" height="3" x="0" y="0" fill="rgba(69, 211, 211, 1)"></rect><rect width="60" height="3" x="0" y="3" fill="rgba(0, 0, 0, 0)"></rect></pattern><clipPath id="SvgjsClipPath3763"><circle r="15" cx="1419.75" cy="451.23"></circle></clipPath><pattern x="0" y="0" width="10.48" height="10.48" patternUnits="userSpaceOnUse" id="SvgjsPattern3766"><path d="M5.24 1L5.24 9.48M1 5.24L9.48 5.24" stroke="rgba(252, 175, 74, 1)" fill="none" stroke-width="2.07"></path></pattern><clipPath id="SvgjsClipPath3765"><circle r="57.64" cx="462.08" cy="516.11"></circle></clipPath></defs></svg>